<svg xmlns="http://www.w3.org/2000/svg" width="180" height="180" viewBox="0 0 508.33 508.36"><path fill="#b92b27" d="M483.17 27.9c11.45 15.13 16.61 40.21 19.15 70.7 3.36 45.5 4.71 100.1 6 156.52-1.67 57.47-2.35 115.43-6 156.52-2.88 31.54-9 52.66-19.22 65.47-13 12.79-37.94 23.59-73.5 26.15-43.25 3.69-96.61 3.65-155.48 5.1-65.44-1.12-109.82-.64-156.38-5.08-36.32-2.52-60.08-13.19-74.7-26.07-10.83-14.54-14-30-17-66.24-3.75-41.85-4.58-98.56-6-155.54C2.17 198.75 2.3 141.62 6.07 98.92c2.53-33.69 6.52-56.34 16.75-70.74C37.17 15.95 61.65 9.87 98.17 6.87c50-5.85 102.06-7 155.88-6.87 55.39.09 108.56 1.67 156 6.34 32 2.56 58.48 8.07 73.07 21.56Z"/><path fill="#fff" d="M318.17 347.24a135.34 135.34 0 0 0 63.22-114.89c0-74.57-59.64-135-133.22-135s-133.2 60.46-133.2 135 59.63 135 133.2 135a131.27 131.27 0 0 0 31.4-3.82c12.65 23 31.91 39.29 72.8 31.5v-22.85s-26.2-6.59-34.2-24.94m-.93-97c0 22.55-7.17 43-18.83 58.12a84.2 84.2 0 0 0-66.71-26.77v26.54s19.75.78 33.28 24a55.79 55.79 0 0 1-15.78 2.3c-37.58 0-68-37.7-68-84.22v-34.8c0-46.51 30.45-84.22 68-84.22s68 37.71 68 84.22v34.77Z"/></svg>